<svg xmlns="http://www.w3.org/2000/svg" width="1024" height="1024" viewBox="0 0 1024 1024">
<g>
<path d="M 529.43 700.36 C526.17,701.19 519.67,702.09 515.00,702.36 C510.33,702.63 507.69,702.63 509.14,702.37 C512.44,701.77 513.00,699.33 513.00,685.44 C513.00,675.55 512.91,675.12 510.75,674.71 C509.51,674.47 511.42,674.20 515.00,674.11 C529.34,673.77 537.41,665.53 535.72,652.98 C535.44,650.84 534.25,647.76 533.09,646.13 C530.32,642.23 521.71,638.00 516.55,638.00 L 512.50 638.00 L 512.77 519.02 L 513.04 400.03 L 487.27 399.73 C473.10,399.56 484.32,399.41 512.21,399.41 C555.89,399.39 563.16,399.18 564.71,397.88 C565.69,397.06 570.10,393.24 574.50,389.39 C593.80,372.55 618.05,355.18 644.50,339.28 C655.82,332.47 676.30,322.00 678.29,322.00 C679.90,322.00 683.14,335.09 686.20,354.00 C688.15,365.98 688.40,371.43 688.44,402.50 C688.49,433.13 688.21,439.86 686.19,456.37 C684.31,471.72 684.09,476.19 684.97,480.37 C690.57,506.79 709.16,546.55 729.14,574.82 C733.55,581.06 737.00,586.33 736.80,586.53 C736.61,586.73 731.73,587.62 725.97,588.51 C678.24,595.88 637.21,610.99 603.00,633.78 C578.98,649.77 567.17,661.55 559.10,677.53 C555.73,684.20 553.60,687.06 549.68,690.16 C543.20,695.28 536.88,698.46 529.43,700.36 ZM 645.50 446.42 C654.24,452.39 655.62,452.87 656.37,450.25 C660.66,435.28 663.52,401.72 662.05,383.66 C660.93,369.99 660.11,365.00 658.97,365.00 C657.83,365.00 630.74,386.17 622.00,393.88 C609.60,404.83 594.93,419.29 595.25,420.25 C595.41,420.74 599.59,422.85 604.52,424.93 C621.56,432.10 634.32,438.79 645.50,446.42 ZM 553.45 611.50 C553.77,612.63 553.94,613.56 554.14,613.56 C554.48,613.57 554.90,610.96 556.32,602.25 C556.55,600.84 556.81,599.26 557.09,597.50 C557.72,593.65 559.33,587.59 560.66,584.03 C567.29,566.27 578.41,556.83 604.00,547.22 C609.78,545.05 617.42,541.85 621.00,540.10 C628.46,536.45 643.15,526.16 643.80,524.13 C644.47,522.07 598.99,523.15 590.09,525.42 C571.85,530.06 559.95,541.92 554.39,561.00 C552.80,566.47 552.51,570.75 552.54,588.00 C552.57,599.28 552.97,609.85 553.45,611.50 ZM 471.00 615.50 C471.00,616.26 470.55,617.16 470.00,617.50 C469.43,617.85 469.00,616.99 469.00,615.50 C469.00,614.01 469.43,613.15 470.00,613.50 C470.55,613.84 471.00,614.74 471.00,615.50 Z" fill="rgb(20,159,77)"/>
<path d="M 0.00 0.00 L 1024.00 0.00 L 1024.00 1024.00 L 0.00 1024.00 ZM 529.43 700.36 C536.88,698.46 543.20,695.28 549.68,690.16 C553.60,687.06 555.73,684.20 559.10,677.53 C567.17,661.55 578.98,649.77 603.00,633.78 C637.21,610.99 678.24,595.88 725.97,588.51 C731.73,587.62 736.61,586.73 736.80,586.53 C737.00,586.33 733.55,581.06 729.14,574.82 C709.16,546.55 690.57,506.79 684.97,480.37 C684.09,476.19 684.31,471.72 686.19,456.37 C688.21,439.86 688.49,433.13 688.44,402.50 C688.40,371.43 688.15,365.98 686.20,354.00 C683.14,335.09 679.90,322.00 678.29,322.00 C676.30,322.00 655.82,332.47 644.50,339.28 C618.05,355.18 593.80,372.55 574.50,389.39 C570.10,393.24 565.69,397.06 564.71,397.88 C563.16,399.18 555.89,399.39 512.21,399.41 C484.32,399.41 473.10,399.56 487.27,399.73 L 510.19 400.00 L 487.25 399.99 L 461.50 399.99 L 450.00 389.93 C424.19,367.36 389.18,343.49 358.23,327.35 C352.58,324.41 347.35,322.00 346.60,322.00 C344.73,322.00 341.38,334.46 339.02,350.16 C334.48,380.36 334.00,415.11 337.67,446.50 C338.64,454.75 339.42,466.67 339.41,473.00 C339.39,483.69 339.12,485.28 335.59,495.50 C325.09,525.92 308.72,557.62 292.90,578.17 C289.66,582.38 287.00,586.10 287.00,586.42 C287.00,586.74 287.86,587.00 288.91,587.00 C291.69,587.00 321.16,592.49 331.57,594.95 C361.00,601.89 394.85,616.25 418.80,631.94 C443.12,647.87 456.64,660.88 464.32,675.77 C471.25,689.17 478.02,694.90 492.50,699.63 C496.56,700.95 502.07,701.93 505.62,701.96 C508.46,701.98 509.98,701.98 510.87,701.67 C510.40,702.04 509.83,702.24 509.14,702.37 C507.69,702.63 510.33,702.63 515.00,702.36 C519.67,702.09 526.17,701.19 529.43,700.36 ZM 375.01 449.30 C372.00,451.34 369.22,453.00 368.85,453.00 C368.02,453.00 366.44,445.92 364.28,432.50 C363.14,425.44 362.64,415.43 362.58,398.50 C362.50,373.89 363.22,364.99 365.31,365.01 C369.95,365.06 430.00,416.43 430.00,420.36 C430.00,421.00 427.64,422.36 424.75,423.38 C411.13,428.18 390.14,439.12 375.01,449.30 ZM 645.50 446.42 C634.32,438.79 621.56,432.10 604.52,424.93 C599.59,422.85 595.41,420.74 595.25,420.25 C594.93,419.29 609.60,404.83 622.00,393.88 C630.74,386.17 657.83,365.00 658.97,365.00 C660.11,365.00 660.93,369.99 662.05,383.66 C663.52,401.72 660.66,435.28 656.37,450.25 C655.62,452.87 654.24,452.39 645.50,446.42 ZM 471.83 593.56 C471.65,603.75 471.31,611.22 470.88,614.77 C470.71,614.23 470.38,613.73 470.00,613.50 C469.62,613.27 469.31,613.56 469.14,614.22 C468.97,612.99 468.81,611.36 468.66,609.30 C466.21,575.88 452.45,558.25 420.00,546.96 C416.42,545.72 410.74,543.42 407.36,541.85 C403.98,540.28 400.81,539.00 400.32,539.00 C398.81,539.00 380.67,525.59 380.20,524.13 C379.52,522.05 426.02,523.15 434.98,525.43 C448.73,528.93 460.35,538.21 466.02,550.21 C471.34,561.46 472.28,568.49 471.83,593.56 ZM 553.45 611.50 C552.97,609.85 552.57,599.28 552.54,588.00 C552.51,570.75 552.80,566.47 554.39,561.00 C559.95,541.92 571.85,530.06 590.09,525.42 C598.99,523.15 644.47,522.07 643.80,524.13 C643.15,526.16 628.46,536.45 621.00,540.10 C617.42,541.85 609.78,545.05 604.00,547.22 C578.41,556.83 567.29,566.27 560.66,584.03 C559.33,587.59 557.72,593.65 557.09,597.50 C556.81,599.26 556.55,600.84 556.32,602.25 C554.90,610.96 554.48,613.57 554.14,613.56 C553.94,613.56 553.77,612.63 553.45,611.50 ZM 512.52 631.20 L 512.50 638.00 L 516.55 638.00 C521.71,638.00 530.32,642.23 533.09,646.13 C534.25,647.76 535.44,650.84 535.72,652.98 C537.41,665.53 529.34,673.77 515.00,674.11 C511.42,674.20 509.51,674.47 510.75,674.71 C511.13,674.78 511.44,674.85 511.70,674.97 L 508.75 674.52 C498.25,672.89 493.04,669.96 489.98,663.96 C487.79,659.67 487.39,653.05 489.12,649.68 C492.52,643.05 501.14,638.00 509.06,638.00 C511.27,638.00 511.86,637.45 512.38,634.88 C512.42,634.63 512.47,633.37 512.52,631.20 ZM 512.57 697.43 C512.82,694.85 513.00,690.05 513.00,685.49 C513.00,691.17 512.91,694.94 512.57,697.43 ZM 513.00 400.03 L 513.04 400.03 L 513.00 417.50 Z" fill="rgb(22,37,37)"/>
<path d="M 512.52 631.20 C512.47,633.37 512.42,634.63 512.38,634.88 C511.86,637.45 511.27,638.00 509.06,638.00 C501.14,638.00 492.52,643.05 489.12,649.68 C487.39,653.05 487.79,659.67 489.98,663.96 C493.04,669.96 498.25,672.89 508.75,674.52 L 511.70 674.97 C512.94,675.56 513.00,677.28 513.00,685.44 L 513.00 685.49 C513.00,690.05 512.82,694.85 512.57,697.43 C512.25,699.75 511.72,700.99 510.87,701.67 C509.98,701.98 508.46,701.98 505.62,701.96 C502.07,701.93 496.56,700.95 492.50,699.63 C478.02,694.90 471.25,689.17 464.32,675.77 C456.64,660.88 443.12,647.87 418.80,631.94 C394.85,616.25 361.00,601.89 331.57,594.95 C330.77,594.76 329.86,594.55 328.86,594.33 C331.17,594.65 333.80,594.64 334.79,594.11 C335.90,593.52 337.17,593.49 338.05,594.05 C338.85,594.56 339.05,595.01 338.50,595.07 C337.95,595.12 339.25,595.98 341.40,596.98 C346.77,599.48 359.57,599.35 359.37,596.79 C359.29,595.85 359.52,595.11 359.87,595.16 C360.22,595.20 360.95,595.13 361.50,594.99 C362.05,594.86 363.59,594.69 364.91,594.62 C368.03,594.46 368.87,592.04 366.06,591.30 C364.76,590.97 364.03,590.09 364.21,589.12 C364.45,587.85 366.01,587.44 371.42,587.20 C377.03,586.96 378.88,586.44 381.24,584.45 C382.84,583.10 385.14,582.00 386.34,582.00 C387.65,582.00 388.92,581.10 389.51,579.75 C390.38,577.77 391.23,577.50 396.67,577.50 C403.71,577.50 404.64,577.00 402.88,574.18 C401.36,571.75 402.89,569.31 406.24,568.81 C408.55,568.47 412.21,562.78 411.78,560.22 C411.62,559.33 412.60,558.05 413.96,557.36 C416.14,556.25 416.22,556.02 414.66,555.42 C413.65,555.04 413.12,554.12 413.43,553.32 C413.73,552.53 413.54,552.17 412.99,552.51 C412.44,552.84 412.00,552.44 412.00,551.62 C412.00,550.79 412.43,549.85 412.96,549.53 C414.43,548.62 412.59,544.76 410.28,543.91 C408.03,543.08 403.57,545.50 404.52,547.03 C405.00,547.82 398.14,545.40 397.11,544.42 C396.89,544.22 397.30,543.34 398.02,542.48 C398.95,541.35 399.53,541.23 400.04,542.06 C400.52,542.84 400.96,542.88 401.40,542.17 C401.75,541.59 399.96,539.53 397.42,537.59 C394.07,535.04 392.00,534.16 389.92,534.40 C388.34,534.58 387.26,534.39 387.51,533.98 C387.77,533.57 387.11,533.00 386.05,532.72 C384.72,532.38 384.29,531.62 384.64,530.26 C385.03,528.76 384.31,527.90 381.52,526.58 C377.09,524.48 377.34,523.23 382.54,521.38 C389.94,518.74 436.32,520.28 433.60,523.07 C433.38,523.31 435.41,523.55 438.11,523.60 C443.48,523.71 444.03,523.97 444.40,526.53 C444.69,528.47 451.15,531.05 454.25,530.45 C455.36,530.24 455.99,530.34 455.64,530.69 C454.68,531.65 457.08,534.07 458.27,533.33 C458.84,532.98 459.03,533.15 458.69,533.70 C457.78,535.16 462.59,539.37 464.10,538.44 C464.94,537.92 465.15,538.16 464.76,539.18 C464.44,540.00 464.57,541.30 465.04,542.06 C465.56,542.91 465.44,543.73 464.71,544.18 C463.81,544.73 463.86,545.24 464.91,546.21 C466.04,547.27 466.16,547.26 465.52,546.14 C464.94,545.12 465.26,544.95 466.79,545.43 C472.27,547.17 473.00,547.01 473.00,544.02 C473.00,540.75 476.99,535.47 480.29,534.38 C482.48,533.65 482.48,533.64 480.00,532.92 C478.62,532.53 476.32,532.15 474.89,532.10 C472.66,532.01 472.34,532.35 472.73,534.39 C472.98,535.70 472.70,537.69 472.11,538.80 C471.18,540.54 470.68,540.66 468.60,539.68 C467.26,539.05 466.39,538.18 466.65,537.75 C466.92,537.32 467.56,537.23 468.07,537.54 C468.63,537.89 468.66,537.20 468.14,535.81 C467.67,534.54 467.52,532.83 467.81,532.00 C468.23,530.78 468.05,530.73 466.83,531.73 C465.62,532.73 465.33,532.69 465.33,531.54 C465.33,530.75 465.60,530.14 465.92,530.17 C468.17,530.42 469.01,529.65 469.12,527.25 C469.20,525.15 469.35,524.98 469.72,526.50 C470.66,530.31 472.05,531.01 478.37,530.83 L 484.50 530.65 L 471.50 529.50 L 471.66 526.12 C471.90,521.18 473.90,519.64 478.96,520.49 C482.01,521.01 483.43,521.85 484.23,523.60 C485.41,526.19 487.88,526.72 489.80,524.80 C491.44,523.16 491.31,520.33 489.56,519.66 C488.77,519.36 488.15,518.30 488.19,517.30 C488.23,516.31 487.95,514.75 487.56,513.83 C486.36,511.01 490.57,507.67 494.53,508.31 C497.87,508.85 501.00,506.85 501.00,504.17 C501.00,503.53 501.50,503.00 502.11,503.00 C502.72,503.00 502.95,502.33 502.64,501.50 C502.32,500.67 502.48,500.00 503.00,500.00 C503.52,500.00 503.65,499.25 503.30,498.34 C502.89,497.28 503.06,496.92 503.74,497.34 C505.51,498.43 507.75,497.04 508.83,494.18 C509.41,492.64 510.09,474.25 510.43,451.00 C510.76,428.73 511.31,408.14 511.65,405.25 L 512.28 400.02 L 513.00 400.03 L 513.00 417.50 L 512.77 519.02 ZM 471.00 615.50 C471.00,615.26 470.96,615.01 470.88,614.77 C471.31,611.22 471.65,603.75 471.83,593.56 C472.28,568.49 471.34,561.46 466.02,550.21 C460.35,538.21 448.73,528.93 434.98,525.43 C426.02,523.15 379.52,522.05 380.20,524.13 C380.67,525.59 398.81,539.00 400.32,539.00 C400.81,539.00 403.98,540.28 407.36,541.85 C410.74,543.42 416.42,545.72 420.00,546.96 C426.58,549.25 432.39,551.80 437.50,554.69 C435.12,553.63 434.05,553.96 434.70,555.66 C435.13,556.78 434.96,557.09 434.17,556.61 C432.64,555.66 432.64,558.24 434.17,559.77 C435.37,560.97 438.41,560.93 439.64,559.69 C440.02,559.31 439.70,558.99 438.92,558.97 C437.97,558.95 438.13,558.57 439.40,557.84 C440.43,557.24 440.87,556.94 440.64,556.57 C458.53,567.86 466.81,584.09 468.66,609.30 C468.81,611.36 468.97,612.99 469.14,614.22 C469.05,614.56 469.00,614.99 469.00,615.50 C469.00,616.99 469.43,617.85 470.00,617.50 C470.55,617.16 471.00,616.26 471.00,615.50 ZM 310.29 551.54 C304.05,562.71 297.48,573.02 291.04,581.55 C290.20,582.67 290.70,582.37 292.17,580.88 C294.78,578.21 294.86,578.19 296.57,580.08 C297.53,581.14 298.96,582.00 299.74,582.00 C300.53,582.00 301.94,582.94 302.86,584.08 C303.98,585.46 305.89,586.23 308.52,586.38 C311.93,586.56 323.50,591.29 325.00,593.11 C325.20,593.35 325.63,593.57 326.20,593.76 C313.43,591.06 291.30,587.00 288.91,587.00 C287.86,587.00 287.00,586.74 287.00,586.42 C287.00,586.10 289.66,582.38 292.90,578.17 C298.73,570.60 304.63,561.51 310.29,551.54 ZM 421.36 562.13 C420.07,562.64 419.96,562.88 421.00,562.91 C421.83,562.94 423.17,562.53 424.00,562.00 C424.83,561.47 425.05,561.02 424.50,561.00 C423.95,560.98 424.17,560.53 425.00,559.98 C426.25,559.17 426.10,558.89 424.17,558.36 C422.42,557.88 422.17,557.51 423.17,556.88 C424.12,556.27 423.84,556.03 422.19,556.02 C420.91,556.01 420.16,556.44 420.50,557.00 C420.84,557.55 420.30,557.93 419.31,557.84 C415.63,557.52 413.00,558.03 413.00,559.06 C413.00,559.64 413.50,559.81 414.11,559.43 C414.72,559.06 417.02,559.35 419.22,560.07 C422.48,561.15 422.88,561.53 421.36,562.13 ZM 332.71 583.25 C331.95,585.31 330.62,585.50 329.31,583.75 C327.56,581.41 328.37,578.52 330.87,578.17 C333.58,577.78 336.12,579.66 334.42,580.79 C333.83,581.18 333.06,582.29 332.71,583.25 ZM 420.67 554.33 C421.03,554.70 422.09,554.21 423.02,553.25 C424.73,551.47 423.95,550.05 421.25,550.02 C419.94,550.00 419.51,553.18 420.67,554.33 ZM 396.00 585.50 C396.00,586.33 396.89,587.00 398.00,587.00 C399.11,587.00 400.00,586.33 400.00,585.50 C400.00,584.67 399.11,584.00 398.00,584.00 C396.89,584.00 396.00,584.67 396.00,585.50 ZM 495.51 517.02 C495.86,517.58 496.56,517.77 497.07,517.46 C498.28,516.71 498.28,514.00 497.06,514.00 C495.71,514.00 494.77,515.82 495.51,517.02 ZM 403.73 544.00 C402.79,545.10 402.45,546.00 402.97,546.00 C403.50,546.00 404.41,545.10 405.00,544.00 C405.59,542.90 405.93,542.00 405.76,542.00 C405.59,542.00 404.67,542.90 403.73,544.00 ZM 458.02 537.52 C458.72,538.36 459.49,538.84 459.74,538.59 C460.44,537.90 459.03,536.00 457.82,536.00 C457.16,536.00 457.23,536.57 458.02,537.52 ZM 468.60 541.75 C467.67,543.37 467.51,543.34 465.87,541.25 C464.66,539.70 464.68,539.64 466.09,540.74 C466.97,541.42 468.05,541.65 468.50,541.24 C468.95,540.83 469.00,541.06 468.60,541.75 ZM 471.50 545.00 C471.16,545.55 470.68,546.00 470.44,546.00 C470.20,546.00 470.00,545.55 470.00,545.00 C470.00,544.45 470.48,544.00 471.06,544.00 C471.64,544.00 471.84,544.45 471.50,545.00 Z" fill="rgb(57,199,68)"/>
<path d="M 341.40 596.98 C339.25,595.98 337.95,595.12 338.50,595.07 C339.05,595.01 338.85,594.56 338.05,594.05 C337.17,593.49 335.90,593.52 334.79,594.11 C333.03,595.05 326.01,594.33 325.00,593.11 C323.50,591.29 311.93,586.56 308.52,586.38 C305.89,586.23 303.98,585.46 302.86,584.08 C301.94,582.94 300.53,582.00 299.74,582.00 C298.96,582.00 297.53,581.14 296.57,580.08 C294.86,578.19 294.78,578.21 292.17,580.88 C290.70,582.37 290.20,582.67 291.04,581.55 C307.65,559.53 325.16,525.69 335.59,495.50 C339.12,485.28 339.39,483.69 339.41,473.00 C339.42,466.67 338.64,454.75 337.67,446.50 C334.00,415.11 334.48,380.36 339.02,350.16 C341.38,334.46 344.73,322.00 346.60,322.00 C347.35,322.00 352.58,324.41 358.23,327.35 C389.18,343.49 424.19,367.36 450.00,389.93 L 461.50 399.99 L 486.89 399.99 L 512.28 400.00 L 511.65 405.25 C511.31,408.14 510.76,428.73 510.43,451.00 C510.09,474.25 509.41,492.64 508.83,494.18 C507.75,497.04 505.51,498.43 503.74,497.34 C503.06,496.92 502.89,497.28 503.30,498.34 C503.65,499.25 503.52,500.00 503.00,500.00 C502.48,500.00 502.32,500.67 502.64,501.50 C502.95,502.33 502.72,503.00 502.11,503.00 C501.50,503.00 501.00,503.53 501.00,504.17 C501.00,506.85 497.87,508.85 494.53,508.31 C490.57,507.67 486.36,511.01 487.56,513.83 C487.95,514.75 488.23,516.31 488.19,517.30 C488.15,518.30 488.77,519.36 489.56,519.66 C491.31,520.33 491.44,523.16 489.80,524.80 C487.88,526.72 485.41,526.19 484.23,523.60 C483.43,521.85 482.01,521.01 478.96,520.49 C473.90,519.64 471.90,521.18 471.66,526.12 L 471.50 529.50 L 478.00 530.08 L 484.50 530.65 L 478.37 530.83 C472.05,531.01 470.66,530.31 469.72,526.50 C469.35,524.98 469.20,525.15 469.12,527.25 C469.01,529.65 468.17,530.42 465.92,530.17 C465.60,530.14 465.33,530.75 465.33,531.54 C465.33,532.69 465.62,532.73 466.83,531.73 C468.05,530.73 468.23,530.78 467.81,532.00 C467.52,532.83 467.67,534.54 468.14,535.81 C468.66,537.20 468.63,537.89 468.07,537.54 C467.56,537.23 466.92,537.32 466.65,537.75 C466.39,538.18 467.26,539.05 468.60,539.68 C470.68,540.66 471.18,540.54 472.11,538.80 C472.70,537.69 472.98,535.70 472.73,534.39 C472.34,532.35 472.66,532.01 474.89,532.10 C476.32,532.15 478.62,532.53 480.00,532.92 C482.48,533.64 482.48,533.65 480.29,534.38 C476.99,535.47 473.00,540.75 473.00,544.02 C473.00,547.01 472.27,547.17 466.79,545.43 C465.26,544.95 464.94,545.12 465.52,546.14 C466.16,547.26 466.04,547.27 464.91,546.21 C463.86,545.24 463.81,544.73 464.71,544.18 C465.44,543.73 465.56,542.91 465.04,542.06 C464.57,541.30 464.44,540.00 464.76,539.18 C465.15,538.16 464.94,537.92 464.10,538.44 C462.59,539.37 457.78,535.16 458.69,533.70 C459.03,533.15 458.84,532.98 458.27,533.33 C457.08,534.07 454.68,531.65 455.64,530.69 C455.99,530.34 455.36,530.24 454.25,530.45 C451.15,531.05 444.69,528.47 444.40,526.53 C444.03,523.97 443.48,523.71 438.11,523.60 C435.41,523.55 433.38,523.31 433.60,523.07 C436.32,520.28 389.94,518.74 382.54,521.38 C377.34,523.23 377.09,524.48 381.52,526.58 C384.31,527.90 385.03,528.76 384.64,530.26 C384.29,531.62 384.72,532.38 386.05,532.72 C387.11,533.00 387.77,533.57 387.51,533.98 C387.26,534.39 388.34,534.58 389.92,534.40 C392.00,534.16 394.07,535.04 397.42,537.59 C399.96,539.53 401.75,541.59 401.40,542.17 C400.96,542.88 400.52,542.84 400.04,542.06 C399.53,541.23 398.95,541.35 398.02,542.48 C397.30,543.34 396.89,544.22 397.11,544.42 C398.14,545.40 405.00,547.82 404.52,547.03 C403.57,545.50 408.03,543.08 410.28,543.91 C412.59,544.76 414.43,548.62 412.96,549.53 C412.43,549.85 412.00,550.79 412.00,551.62 C412.00,552.44 412.44,552.84 412.99,552.51 C413.54,552.17 413.73,552.53 413.43,553.32 C413.12,554.12 413.65,555.04 414.66,555.42 C416.22,556.02 416.14,556.25 413.96,557.36 C412.60,558.05 411.62,559.33 411.78,560.22 C412.21,562.78 408.55,568.47 406.24,568.81 C402.89,569.31 401.36,571.75 402.88,574.18 C404.64,577.00 403.71,577.50 396.67,577.50 C391.23,577.50 390.38,577.77 389.51,579.75 C388.92,581.10 387.65,582.00 386.34,582.00 C385.14,582.00 382.84,583.10 381.24,584.45 C378.88,586.44 377.03,586.96 371.42,587.20 C366.01,587.44 364.45,587.85 364.21,589.12 C364.03,590.09 364.76,590.97 366.06,591.30 C368.87,592.04 368.03,594.46 364.91,594.62 C363.59,594.69 362.05,594.86 361.50,594.99 C360.95,595.13 360.22,595.20 359.87,595.16 C359.52,595.11 359.29,595.85 359.37,596.79 C359.57,599.35 346.77,599.48 341.40,596.98 ZM 332.71 583.25 C333.06,582.29 333.83,581.18 334.42,580.79 C336.12,579.66 333.58,577.78 330.87,578.17 C328.37,578.52 327.56,581.41 329.31,583.75 C330.62,585.50 331.95,585.31 332.71,583.25 ZM 471.50 545.00 C471.84,544.45 471.64,544.00 471.06,544.00 C470.48,544.00 470.00,544.45 470.00,545.00 C470.00,545.55 470.20,546.00 470.44,546.00 C470.68,546.00 471.16,545.55 471.50,545.00 ZM 468.60 541.75 C469.00,541.06 468.95,540.83 468.50,541.24 C468.05,541.65 466.97,541.42 466.09,540.74 C464.68,539.64 464.66,539.70 465.87,541.25 C467.51,543.34 467.67,543.37 468.60,541.75 ZM 375.01 449.30 C390.14,439.12 411.13,428.18 424.75,423.38 C427.64,422.36 430.00,421.00 430.00,420.36 C430.00,416.43 369.95,365.06 365.31,365.01 C363.22,364.99 362.50,373.89 362.58,398.50 C362.64,415.43 363.14,425.44 364.28,432.50 C366.44,445.92 368.02,453.00 368.85,453.00 C369.22,453.00 372.00,451.34 375.01,449.30 ZM 396.00 585.50 C396.00,584.67 396.89,584.00 398.00,584.00 C399.11,584.00 400.00,584.67 400.00,585.50 C400.00,586.33 399.11,587.00 398.00,587.00 C396.89,587.00 396.00,586.33 396.00,585.50 ZM 421.36 562.13 C422.88,561.53 422.48,561.15 419.22,560.07 C417.02,559.35 414.72,559.06 414.11,559.43 C413.50,559.81 413.00,559.64 413.00,559.06 C413.00,558.03 415.63,557.52 419.31,557.84 C420.30,557.93 420.84,557.55 420.50,557.00 C420.16,556.44 420.91,556.01 422.19,556.02 C423.84,556.03 424.12,556.27 423.17,556.88 C422.17,557.51 422.42,557.88 424.17,558.36 C426.10,558.89 426.25,559.17 425.00,559.98 C424.17,560.53 423.95,560.98 424.50,561.00 C425.05,561.02 424.83,561.47 424.00,562.00 C423.17,562.53 421.83,562.94 421.00,562.91 C419.96,562.88 420.07,562.64 421.36,562.13 ZM 434.17 559.77 C432.64,558.24 432.64,555.66 434.17,556.61 C434.96,557.09 435.13,556.78 434.70,555.66 C433.93,553.65 435.56,553.55 438.90,555.40 C441.20,556.67 441.22,556.78 439.40,557.84 C438.13,558.57 437.97,558.95 438.92,558.97 C439.70,558.99 440.02,559.31 439.64,559.69 C438.41,560.93 435.37,560.97 434.17,559.77 ZM 420.67 554.33 C419.51,553.18 419.94,550.00 421.25,550.02 C423.95,550.05 424.73,551.47 423.02,553.25 C422.09,554.21 421.03,554.70 420.67,554.33 ZM 403.73 544.00 C404.67,542.90 405.59,542.00 405.76,542.00 C405.93,542.00 405.59,542.90 405.00,544.00 C404.41,545.10 403.50,546.00 402.97,546.00 C402.45,546.00 402.79,545.10 403.73,544.00 ZM 458.02 537.52 C457.23,536.57 457.16,536.00 457.82,536.00 C459.03,536.00 460.44,537.90 459.74,538.59 C459.49,538.84 458.72,538.36 458.02,537.52 ZM 495.51 517.02 C494.77,515.82 495.71,514.00 497.06,514.00 C498.28,514.00 498.28,516.71 497.07,517.46 C496.56,517.77 495.86,517.58 495.51,517.02 Z" fill="rgb(66,209,67)"/>
</g>
</svg>